G04 EAGLE Gerber X2 export*
G75*
%MOMM*%
%FSLAX34Y34*%
%LPD*%
%AMOC8*
5,1,8,0,0,1.08239X$1,22.5*%
G01*
%ADD10C,0.406400*%


D10*
X25400Y62230D02*
X25402Y62301D01*
X25408Y62372D01*
X25418Y62443D01*
X25432Y62513D01*
X25450Y62582D01*
X25471Y62649D01*
X25497Y62716D01*
X25526Y62781D01*
X25558Y62844D01*
X25595Y62906D01*
X25634Y62965D01*
X25677Y63022D01*
X25723Y63076D01*
X25772Y63128D01*
X25824Y63177D01*
X25878Y63223D01*
X25935Y63266D01*
X25994Y63305D01*
X26056Y63342D01*
X26119Y63374D01*
X26184Y63403D01*
X26251Y63429D01*
X26318Y63450D01*
X26387Y63468D01*
X26457Y63482D01*
X26528Y63492D01*
X26599Y63498D01*
X26670Y63500D01*
X26741Y63498D01*
X26812Y63492D01*
X26883Y63482D01*
X26953Y63468D01*
X27022Y63450D01*
X27089Y63429D01*
X27156Y63403D01*
X27221Y63374D01*
X27284Y63342D01*
X27346Y63305D01*
X27405Y63266D01*
X27462Y63223D01*
X27516Y63177D01*
X27568Y63128D01*
X27617Y63076D01*
X27663Y63022D01*
X27706Y62965D01*
X27745Y62906D01*
X27782Y62844D01*
X27814Y62781D01*
X27843Y62716D01*
X27869Y62649D01*
X27890Y62582D01*
X27908Y62513D01*
X27922Y62443D01*
X27932Y62372D01*
X27938Y62301D01*
X27940Y62230D01*
X27938Y62159D01*
X27932Y62088D01*
X27922Y62017D01*
X27908Y61947D01*
X27890Y61878D01*
X27869Y61811D01*
X27843Y61744D01*
X27814Y61679D01*
X27782Y61616D01*
X27745Y61554D01*
X27706Y61495D01*
X27663Y61438D01*
X27617Y61384D01*
X27568Y61332D01*
X27516Y61283D01*
X27462Y61237D01*
X27405Y61194D01*
X27346Y61155D01*
X27284Y61118D01*
X27221Y61086D01*
X27156Y61057D01*
X27089Y61031D01*
X27022Y61010D01*
X26953Y60992D01*
X26883Y60978D01*
X26812Y60968D01*
X26741Y60962D01*
X26670Y60960D01*
X26599Y60962D01*
X26528Y60968D01*
X26457Y60978D01*
X26387Y60992D01*
X26318Y61010D01*
X26251Y61031D01*
X26184Y61057D01*
X26119Y61086D01*
X26056Y61118D01*
X25994Y61155D01*
X25935Y61194D01*
X25878Y61237D01*
X25824Y61283D01*
X25772Y61332D01*
X25723Y61384D01*
X25677Y61438D01*
X25634Y61495D01*
X25595Y61554D01*
X25558Y61616D01*
X25526Y61679D01*
X25497Y61744D01*
X25471Y61811D01*
X25450Y61878D01*
X25432Y61947D01*
X25418Y62017D01*
X25408Y62088D01*
X25402Y62159D01*
X25400Y62230D01*
M02*
