G04 EAGLE Gerber X2 export*
G75*
%MOMM*%
%FSLAX34Y34*%
%LPD*%
%AMOC8*
5,1,8,0,0,1.08239X$1,22.5*%
G01*
%ADD10C,0.050800*%
%ADD11C,2.082800*%


D10*
X86220Y3556D02*
X87772Y3556D01*
X87830Y3558D01*
X87889Y3563D01*
X87946Y3572D01*
X88004Y3585D01*
X88060Y3602D01*
X88115Y3621D01*
X88168Y3645D01*
X88221Y3671D01*
X88271Y3701D01*
X88319Y3734D01*
X88365Y3770D01*
X88409Y3808D01*
X88451Y3850D01*
X88489Y3894D01*
X88525Y3940D01*
X88558Y3988D01*
X88588Y4038D01*
X88614Y4091D01*
X88638Y4144D01*
X88657Y4199D01*
X88674Y4255D01*
X88687Y4313D01*
X88696Y4370D01*
X88701Y4429D01*
X88703Y4487D01*
X88703Y6350D01*
X88701Y6408D01*
X88696Y6467D01*
X88687Y6524D01*
X88674Y6582D01*
X88657Y6638D01*
X88638Y6693D01*
X88614Y6746D01*
X88588Y6799D01*
X88558Y6849D01*
X88525Y6897D01*
X88489Y6943D01*
X88451Y6987D01*
X88409Y7029D01*
X88365Y7067D01*
X88319Y7103D01*
X88271Y7136D01*
X88221Y7166D01*
X88168Y7192D01*
X88115Y7216D01*
X88060Y7235D01*
X88004Y7252D01*
X87946Y7265D01*
X87889Y7274D01*
X87830Y7279D01*
X87772Y7281D01*
X86220Y7281D01*
X86220Y2625D01*
X86222Y2564D01*
X86228Y2503D01*
X86238Y2443D01*
X86252Y2384D01*
X86269Y2326D01*
X86291Y2269D01*
X86316Y2213D01*
X86345Y2160D01*
X86377Y2108D01*
X86412Y2058D01*
X86451Y2011D01*
X86493Y1967D01*
X86537Y1925D01*
X86584Y1886D01*
X86634Y1851D01*
X86685Y1819D01*
X86739Y1790D01*
X86795Y1765D01*
X86852Y1743D01*
X86910Y1726D01*
X86969Y1712D01*
X87029Y1702D01*
X87090Y1696D01*
X87151Y1694D01*
X87151Y1693D02*
X88393Y1693D01*
X83775Y3556D02*
X83775Y7281D01*
X83930Y8834D02*
X83930Y9144D01*
X83620Y9144D01*
X83620Y8834D01*
X83930Y8834D01*
X82009Y7281D02*
X80146Y7281D01*
X81388Y9144D02*
X81388Y4487D01*
X81387Y4487D02*
X81385Y4429D01*
X81380Y4370D01*
X81371Y4313D01*
X81358Y4255D01*
X81341Y4199D01*
X81322Y4144D01*
X81298Y4091D01*
X81272Y4038D01*
X81242Y3988D01*
X81209Y3940D01*
X81173Y3894D01*
X81135Y3850D01*
X81093Y3808D01*
X81049Y3770D01*
X81003Y3734D01*
X80955Y3701D01*
X80905Y3671D01*
X80852Y3645D01*
X80799Y3621D01*
X80744Y3602D01*
X80688Y3585D01*
X80630Y3572D01*
X80573Y3563D01*
X80514Y3558D01*
X80456Y3556D01*
X80146Y3556D01*
X78261Y3556D02*
X78261Y3866D01*
X77951Y3866D01*
X77951Y3556D01*
X78261Y3556D01*
X75912Y3556D02*
X75912Y7281D01*
X76067Y8834D02*
X76067Y9144D01*
X75756Y9144D01*
X75756Y8834D01*
X76067Y8834D01*
X73679Y6040D02*
X73679Y4798D01*
X73679Y6040D02*
X73677Y6110D01*
X73671Y6179D01*
X73661Y6248D01*
X73648Y6316D01*
X73630Y6384D01*
X73609Y6450D01*
X73584Y6515D01*
X73556Y6579D01*
X73524Y6641D01*
X73489Y6701D01*
X73450Y6759D01*
X73408Y6814D01*
X73363Y6868D01*
X73315Y6918D01*
X73265Y6966D01*
X73211Y7011D01*
X73156Y7053D01*
X73098Y7092D01*
X73038Y7127D01*
X72976Y7159D01*
X72912Y7187D01*
X72847Y7212D01*
X72781Y7233D01*
X72713Y7251D01*
X72645Y7264D01*
X72576Y7274D01*
X72507Y7280D01*
X72437Y7282D01*
X72367Y7280D01*
X72298Y7274D01*
X72229Y7264D01*
X72161Y7251D01*
X72093Y7233D01*
X72027Y7212D01*
X71962Y7187D01*
X71898Y7159D01*
X71836Y7127D01*
X71776Y7092D01*
X71718Y7053D01*
X71663Y7011D01*
X71609Y6966D01*
X71559Y6918D01*
X71511Y6868D01*
X71466Y6814D01*
X71424Y6759D01*
X71385Y6701D01*
X71350Y6641D01*
X71318Y6579D01*
X71290Y6515D01*
X71265Y6450D01*
X71244Y6384D01*
X71226Y6316D01*
X71213Y6248D01*
X71203Y6179D01*
X71197Y6110D01*
X71195Y6040D01*
X71195Y4798D01*
X71197Y4728D01*
X71203Y4659D01*
X71213Y4590D01*
X71226Y4522D01*
X71244Y4454D01*
X71265Y4388D01*
X71290Y4323D01*
X71318Y4259D01*
X71350Y4197D01*
X71385Y4137D01*
X71424Y4079D01*
X71466Y4024D01*
X71511Y3970D01*
X71559Y3920D01*
X71609Y3872D01*
X71663Y3827D01*
X71718Y3785D01*
X71776Y3746D01*
X71836Y3711D01*
X71898Y3679D01*
X71962Y3651D01*
X72027Y3626D01*
X72093Y3605D01*
X72161Y3587D01*
X72229Y3574D01*
X72298Y3564D01*
X72367Y3558D01*
X72437Y3556D01*
X72507Y3558D01*
X72576Y3564D01*
X72645Y3574D01*
X72713Y3587D01*
X72781Y3605D01*
X72847Y3626D01*
X72912Y3651D01*
X72976Y3679D01*
X73038Y3711D01*
X73098Y3746D01*
X73156Y3785D01*
X73211Y3827D01*
X73265Y3872D01*
X73315Y3920D01*
X73363Y3970D01*
X73408Y4024D01*
X73450Y4079D01*
X73489Y4137D01*
X73524Y4197D01*
X73556Y4259D01*
X73584Y4323D01*
X73609Y4388D01*
X73630Y4454D01*
X73648Y4522D01*
X73661Y4590D01*
X73671Y4659D01*
X73677Y4728D01*
X73679Y4798D01*
X69107Y2935D02*
X66623Y9765D01*
X64069Y5729D02*
X62517Y5108D01*
X64069Y5729D02*
X64120Y5751D01*
X64169Y5777D01*
X64217Y5806D01*
X64262Y5839D01*
X64305Y5875D01*
X64346Y5913D01*
X64383Y5955D01*
X64418Y5998D01*
X64450Y6044D01*
X64478Y6093D01*
X64503Y6143D01*
X64524Y6194D01*
X64542Y6247D01*
X64556Y6301D01*
X64566Y6356D01*
X64572Y6412D01*
X64575Y6467D01*
X64574Y6523D01*
X64568Y6579D01*
X64559Y6634D01*
X64547Y6688D01*
X64530Y6742D01*
X64510Y6794D01*
X64486Y6844D01*
X64459Y6893D01*
X64428Y6940D01*
X64394Y6984D01*
X64358Y7026D01*
X64318Y7066D01*
X64276Y7102D01*
X64231Y7136D01*
X64184Y7166D01*
X64136Y7193D01*
X64085Y7217D01*
X64033Y7237D01*
X63979Y7253D01*
X63925Y7266D01*
X63870Y7275D01*
X63814Y7280D01*
X63758Y7281D01*
X63759Y7282D02*
X63648Y7278D01*
X63537Y7272D01*
X63427Y7261D01*
X63317Y7247D01*
X63207Y7230D01*
X63098Y7210D01*
X62990Y7186D01*
X62883Y7158D01*
X62776Y7127D01*
X62671Y7093D01*
X62566Y7056D01*
X62463Y7015D01*
X62361Y6971D01*
X62517Y5108D02*
X62466Y5086D01*
X62417Y5060D01*
X62369Y5031D01*
X62324Y4998D01*
X62281Y4962D01*
X62240Y4924D01*
X62203Y4882D01*
X62168Y4839D01*
X62136Y4793D01*
X62108Y4744D01*
X62083Y4694D01*
X62062Y4643D01*
X62044Y4590D01*
X62030Y4536D01*
X62020Y4481D01*
X62014Y4425D01*
X62011Y4370D01*
X62012Y4314D01*
X62018Y4258D01*
X62027Y4203D01*
X62039Y4149D01*
X62056Y4095D01*
X62076Y4043D01*
X62100Y3993D01*
X62127Y3944D01*
X62158Y3897D01*
X62192Y3853D01*
X62228Y3811D01*
X62268Y3771D01*
X62310Y3735D01*
X62355Y3701D01*
X62402Y3671D01*
X62450Y3644D01*
X62501Y3620D01*
X62553Y3600D01*
X62607Y3584D01*
X62661Y3571D01*
X62716Y3562D01*
X62772Y3557D01*
X62828Y3556D01*
X62827Y3556D02*
X62961Y3559D01*
X63095Y3566D01*
X63229Y3577D01*
X63362Y3590D01*
X63495Y3608D01*
X63628Y3628D01*
X63760Y3652D01*
X63891Y3680D01*
X64022Y3710D01*
X64151Y3744D01*
X64280Y3782D01*
X64408Y3822D01*
X64535Y3866D01*
X58722Y5729D02*
X57325Y5729D01*
X58722Y5730D02*
X58786Y5728D01*
X58851Y5722D01*
X58914Y5713D01*
X58977Y5700D01*
X59039Y5683D01*
X59100Y5662D01*
X59160Y5638D01*
X59218Y5610D01*
X59275Y5579D01*
X59329Y5545D01*
X59382Y5507D01*
X59432Y5466D01*
X59479Y5423D01*
X59524Y5377D01*
X59566Y5328D01*
X59605Y5277D01*
X59641Y5223D01*
X59674Y5168D01*
X59703Y5110D01*
X59729Y5052D01*
X59752Y4991D01*
X59771Y4930D01*
X59786Y4867D01*
X59797Y4803D01*
X59805Y4740D01*
X59809Y4675D01*
X59809Y4611D01*
X59805Y4546D01*
X59797Y4483D01*
X59786Y4419D01*
X59771Y4356D01*
X59752Y4295D01*
X59729Y4234D01*
X59703Y4176D01*
X59674Y4118D01*
X59641Y4063D01*
X59605Y4009D01*
X59566Y3958D01*
X59524Y3909D01*
X59479Y3863D01*
X59432Y3820D01*
X59382Y3779D01*
X59329Y3741D01*
X59275Y3707D01*
X59218Y3676D01*
X59160Y3648D01*
X59100Y3624D01*
X59039Y3603D01*
X58977Y3586D01*
X58914Y3573D01*
X58851Y3564D01*
X58786Y3558D01*
X58722Y3556D01*
X57325Y3556D01*
X57325Y6350D01*
X57326Y6350D02*
X57328Y6408D01*
X57333Y6467D01*
X57342Y6524D01*
X57355Y6582D01*
X57372Y6638D01*
X57391Y6693D01*
X57415Y6746D01*
X57441Y6799D01*
X57471Y6849D01*
X57504Y6897D01*
X57540Y6943D01*
X57578Y6987D01*
X57620Y7029D01*
X57664Y7067D01*
X57710Y7103D01*
X57758Y7136D01*
X57808Y7166D01*
X57861Y7192D01*
X57914Y7216D01*
X57969Y7235D01*
X58025Y7252D01*
X58083Y7265D01*
X58140Y7274D01*
X58199Y7279D01*
X58257Y7281D01*
X59498Y7281D01*
X54842Y6040D02*
X54842Y4798D01*
X54842Y6040D02*
X54840Y6110D01*
X54834Y6179D01*
X54824Y6248D01*
X54811Y6316D01*
X54793Y6384D01*
X54772Y6450D01*
X54747Y6515D01*
X54719Y6579D01*
X54687Y6641D01*
X54652Y6701D01*
X54613Y6759D01*
X54571Y6814D01*
X54526Y6868D01*
X54478Y6918D01*
X54428Y6966D01*
X54374Y7011D01*
X54319Y7053D01*
X54261Y7092D01*
X54201Y7127D01*
X54139Y7159D01*
X54075Y7187D01*
X54010Y7212D01*
X53944Y7233D01*
X53876Y7251D01*
X53808Y7264D01*
X53739Y7274D01*
X53670Y7280D01*
X53600Y7282D01*
X53530Y7280D01*
X53461Y7274D01*
X53392Y7264D01*
X53324Y7251D01*
X53256Y7233D01*
X53190Y7212D01*
X53125Y7187D01*
X53061Y7159D01*
X52999Y7127D01*
X52939Y7092D01*
X52881Y7053D01*
X52826Y7011D01*
X52772Y6966D01*
X52722Y6918D01*
X52674Y6868D01*
X52629Y6814D01*
X52587Y6759D01*
X52548Y6701D01*
X52513Y6641D01*
X52481Y6579D01*
X52453Y6515D01*
X52428Y6450D01*
X52407Y6384D01*
X52389Y6316D01*
X52376Y6248D01*
X52366Y6179D01*
X52360Y6110D01*
X52358Y6040D01*
X52359Y6040D02*
X52359Y4798D01*
X52358Y4798D02*
X52360Y4728D01*
X52366Y4659D01*
X52376Y4590D01*
X52389Y4522D01*
X52407Y4454D01*
X52428Y4388D01*
X52453Y4323D01*
X52481Y4259D01*
X52513Y4197D01*
X52548Y4137D01*
X52587Y4079D01*
X52629Y4024D01*
X52674Y3970D01*
X52722Y3920D01*
X52772Y3872D01*
X52826Y3827D01*
X52881Y3785D01*
X52939Y3746D01*
X52999Y3711D01*
X53061Y3679D01*
X53125Y3651D01*
X53190Y3626D01*
X53256Y3605D01*
X53324Y3587D01*
X53392Y3574D01*
X53461Y3564D01*
X53530Y3558D01*
X53600Y3556D01*
X53670Y3558D01*
X53739Y3564D01*
X53808Y3574D01*
X53876Y3587D01*
X53944Y3605D01*
X54010Y3626D01*
X54075Y3651D01*
X54139Y3679D01*
X54201Y3711D01*
X54261Y3746D01*
X54319Y3785D01*
X54374Y3827D01*
X54428Y3872D01*
X54478Y3920D01*
X54526Y3970D01*
X54571Y4024D01*
X54613Y4079D01*
X54652Y4137D01*
X54687Y4197D01*
X54719Y4259D01*
X54747Y4323D01*
X54772Y4388D01*
X54793Y4454D01*
X54811Y4522D01*
X54824Y4590D01*
X54834Y4659D01*
X54840Y4728D01*
X54842Y4798D01*
X49977Y5729D02*
X46251Y5729D01*
X43404Y5729D02*
X41852Y5108D01*
X43404Y5729D02*
X43455Y5751D01*
X43504Y5777D01*
X43552Y5806D01*
X43597Y5839D01*
X43640Y5875D01*
X43681Y5913D01*
X43718Y5955D01*
X43753Y5998D01*
X43785Y6044D01*
X43813Y6093D01*
X43838Y6143D01*
X43859Y6194D01*
X43877Y6247D01*
X43891Y6301D01*
X43901Y6356D01*
X43907Y6412D01*
X43910Y6467D01*
X43909Y6523D01*
X43903Y6579D01*
X43894Y6634D01*
X43882Y6688D01*
X43865Y6742D01*
X43845Y6794D01*
X43821Y6844D01*
X43794Y6893D01*
X43763Y6940D01*
X43729Y6984D01*
X43693Y7026D01*
X43653Y7066D01*
X43611Y7102D01*
X43566Y7136D01*
X43519Y7166D01*
X43471Y7193D01*
X43420Y7217D01*
X43368Y7237D01*
X43314Y7253D01*
X43260Y7266D01*
X43205Y7275D01*
X43149Y7280D01*
X43093Y7281D01*
X43094Y7282D02*
X42983Y7278D01*
X42872Y7272D01*
X42762Y7261D01*
X42652Y7247D01*
X42542Y7230D01*
X42433Y7210D01*
X42325Y7186D01*
X42218Y7158D01*
X42111Y7127D01*
X42006Y7093D01*
X41901Y7056D01*
X41798Y7015D01*
X41696Y6971D01*
X41851Y5108D02*
X41800Y5086D01*
X41751Y5060D01*
X41703Y5031D01*
X41658Y4998D01*
X41615Y4962D01*
X41574Y4924D01*
X41537Y4882D01*
X41502Y4839D01*
X41470Y4793D01*
X41442Y4744D01*
X41417Y4694D01*
X41396Y4643D01*
X41378Y4590D01*
X41364Y4536D01*
X41354Y4481D01*
X41348Y4425D01*
X41345Y4370D01*
X41346Y4314D01*
X41352Y4258D01*
X41361Y4203D01*
X41373Y4149D01*
X41390Y4095D01*
X41410Y4043D01*
X41434Y3993D01*
X41461Y3944D01*
X41492Y3897D01*
X41526Y3853D01*
X41562Y3811D01*
X41602Y3771D01*
X41644Y3735D01*
X41689Y3701D01*
X41736Y3671D01*
X41784Y3644D01*
X41835Y3620D01*
X41887Y3600D01*
X41941Y3584D01*
X41995Y3571D01*
X42050Y3562D01*
X42106Y3557D01*
X42162Y3556D01*
X42296Y3559D01*
X42430Y3566D01*
X42564Y3577D01*
X42697Y3590D01*
X42830Y3608D01*
X42963Y3628D01*
X43095Y3652D01*
X43226Y3680D01*
X43357Y3710D01*
X43486Y3744D01*
X43615Y3782D01*
X43743Y3822D01*
X43870Y3866D01*
X39581Y7281D02*
X37718Y7281D01*
X38960Y9144D02*
X38960Y4487D01*
X38958Y4429D01*
X38953Y4370D01*
X38944Y4313D01*
X38931Y4255D01*
X38914Y4199D01*
X38895Y4144D01*
X38871Y4091D01*
X38845Y4038D01*
X38815Y3988D01*
X38782Y3940D01*
X38746Y3894D01*
X38708Y3850D01*
X38666Y3808D01*
X38622Y3770D01*
X38576Y3734D01*
X38528Y3701D01*
X38478Y3671D01*
X38425Y3645D01*
X38372Y3621D01*
X38317Y3602D01*
X38261Y3585D01*
X38203Y3572D01*
X38146Y3563D01*
X38087Y3558D01*
X38029Y3556D01*
X37718Y3556D01*
X35424Y3556D02*
X35424Y7281D01*
X33562Y7281D01*
X33562Y6660D01*
X31838Y7281D02*
X31838Y3556D01*
X31993Y8834D02*
X31993Y9144D01*
X31683Y9144D01*
X31683Y8834D01*
X31993Y8834D01*
X29393Y7281D02*
X29393Y1693D01*
X29393Y7281D02*
X27841Y7281D01*
X27783Y7279D01*
X27724Y7274D01*
X27667Y7265D01*
X27609Y7252D01*
X27553Y7235D01*
X27498Y7216D01*
X27445Y7192D01*
X27392Y7166D01*
X27342Y7136D01*
X27294Y7103D01*
X27248Y7067D01*
X27204Y7029D01*
X27162Y6987D01*
X27124Y6943D01*
X27088Y6897D01*
X27055Y6849D01*
X27025Y6799D01*
X26999Y6746D01*
X26975Y6693D01*
X26956Y6638D01*
X26939Y6582D01*
X26926Y6524D01*
X26917Y6467D01*
X26912Y6408D01*
X26910Y6350D01*
X26910Y4487D01*
X26912Y4429D01*
X26917Y4370D01*
X26926Y4313D01*
X26939Y4255D01*
X26956Y4199D01*
X26975Y4144D01*
X26999Y4091D01*
X27025Y4038D01*
X27055Y3988D01*
X27088Y3940D01*
X27124Y3894D01*
X27162Y3850D01*
X27204Y3808D01*
X27248Y3770D01*
X27294Y3734D01*
X27342Y3701D01*
X27392Y3671D01*
X27445Y3645D01*
X27498Y3621D01*
X27553Y3602D01*
X27609Y3585D01*
X27667Y3572D01*
X27724Y3563D01*
X27783Y3558D01*
X27841Y3556D01*
X29393Y3556D01*
X24455Y1693D02*
X24455Y7281D01*
X22903Y7281D01*
X22845Y7279D01*
X22786Y7274D01*
X22729Y7265D01*
X22671Y7252D01*
X22615Y7235D01*
X22560Y7216D01*
X22507Y7192D01*
X22454Y7166D01*
X22404Y7136D01*
X22356Y7103D01*
X22310Y7067D01*
X22266Y7029D01*
X22224Y6987D01*
X22186Y6943D01*
X22150Y6897D01*
X22117Y6849D01*
X22087Y6799D01*
X22061Y6746D01*
X22037Y6693D01*
X22018Y6638D01*
X22001Y6582D01*
X21988Y6524D01*
X21979Y6467D01*
X21974Y6408D01*
X21972Y6350D01*
X21972Y4487D01*
X21974Y4429D01*
X21979Y4370D01*
X21988Y4313D01*
X22001Y4255D01*
X22018Y4199D01*
X22037Y4144D01*
X22061Y4091D01*
X22087Y4038D01*
X22117Y3988D01*
X22150Y3940D01*
X22186Y3894D01*
X22224Y3850D01*
X22266Y3808D01*
X22310Y3770D01*
X22356Y3734D01*
X22404Y3701D01*
X22454Y3671D01*
X22507Y3645D01*
X22560Y3621D01*
X22615Y3602D01*
X22671Y3585D01*
X22729Y3572D01*
X22786Y3563D01*
X22845Y3558D01*
X22903Y3556D01*
X24455Y3556D01*
X18798Y3556D02*
X17246Y3556D01*
X18798Y3556D02*
X18856Y3558D01*
X18915Y3563D01*
X18972Y3572D01*
X19030Y3585D01*
X19086Y3602D01*
X19141Y3621D01*
X19194Y3645D01*
X19247Y3671D01*
X19297Y3701D01*
X19345Y3734D01*
X19391Y3770D01*
X19435Y3808D01*
X19477Y3850D01*
X19515Y3894D01*
X19551Y3940D01*
X19584Y3988D01*
X19614Y4038D01*
X19640Y4091D01*
X19664Y4144D01*
X19683Y4199D01*
X19700Y4255D01*
X19713Y4313D01*
X19722Y4370D01*
X19727Y4429D01*
X19729Y4487D01*
X19729Y6040D01*
X19730Y6040D02*
X19728Y6110D01*
X19722Y6179D01*
X19712Y6248D01*
X19699Y6316D01*
X19681Y6384D01*
X19660Y6450D01*
X19635Y6515D01*
X19607Y6579D01*
X19575Y6641D01*
X19540Y6701D01*
X19501Y6759D01*
X19459Y6814D01*
X19414Y6868D01*
X19366Y6918D01*
X19316Y6966D01*
X19262Y7011D01*
X19207Y7053D01*
X19149Y7092D01*
X19089Y7127D01*
X19027Y7159D01*
X18963Y7187D01*
X18898Y7212D01*
X18832Y7233D01*
X18764Y7251D01*
X18696Y7264D01*
X18627Y7274D01*
X18558Y7280D01*
X18488Y7282D01*
X18418Y7280D01*
X18349Y7274D01*
X18280Y7264D01*
X18212Y7251D01*
X18144Y7233D01*
X18078Y7212D01*
X18013Y7187D01*
X17949Y7159D01*
X17887Y7127D01*
X17827Y7092D01*
X17769Y7053D01*
X17714Y7011D01*
X17660Y6966D01*
X17610Y6918D01*
X17562Y6868D01*
X17517Y6814D01*
X17475Y6759D01*
X17436Y6701D01*
X17401Y6641D01*
X17369Y6579D01*
X17341Y6515D01*
X17316Y6450D01*
X17295Y6384D01*
X17277Y6316D01*
X17264Y6248D01*
X17254Y6179D01*
X17248Y6110D01*
X17246Y6040D01*
X17246Y5419D01*
X19729Y5419D01*
X14759Y3556D02*
X14759Y7281D01*
X12897Y7281D01*
X12897Y6660D01*
D11*
X38100Y52578D03*
X38100Y23622D03*
X63500Y52578D03*
X63500Y23622D03*
M02*
