G04 EAGLE Gerber X2 export*
G75*
%MOMM*%
%FSLAX34Y34*%
%LPD*%
%AMOC8*
5,1,8,0,0,1.08239X$1,22.5*%
G01*
%ADD10C,0.050800*%
%ADD11C,0.152400*%
%ADD12C,0.076200*%
%ADD13C,2.082800*%
%ADD14R,1.703200X2.703200*%


D10*
X27481Y8213D02*
X26549Y8213D01*
X26549Y8212D02*
X26491Y8210D01*
X26432Y8205D01*
X26375Y8196D01*
X26317Y8183D01*
X26261Y8166D01*
X26206Y8147D01*
X26153Y8123D01*
X26100Y8097D01*
X26050Y8067D01*
X26002Y8034D01*
X25956Y7998D01*
X25912Y7960D01*
X25870Y7918D01*
X25832Y7874D01*
X25796Y7828D01*
X25763Y7780D01*
X25733Y7730D01*
X25707Y7677D01*
X25683Y7624D01*
X25664Y7569D01*
X25647Y7513D01*
X25634Y7455D01*
X25625Y7398D01*
X25620Y7339D01*
X25618Y7281D01*
X25618Y5419D01*
X25620Y5359D01*
X25626Y5300D01*
X25635Y5241D01*
X25648Y5183D01*
X25665Y5126D01*
X25686Y5070D01*
X25710Y5015D01*
X25738Y4962D01*
X25769Y4911D01*
X25803Y4862D01*
X25840Y4815D01*
X25880Y4771D01*
X25923Y4730D01*
X25969Y4691D01*
X26016Y4655D01*
X26066Y4623D01*
X26118Y4594D01*
X26172Y4568D01*
X26227Y4545D01*
X26284Y4526D01*
X26342Y4511D01*
X26400Y4500D01*
X26460Y4492D01*
X26519Y4488D01*
X26579Y4488D01*
X26638Y4492D01*
X26698Y4500D01*
X26756Y4511D01*
X26814Y4526D01*
X26871Y4545D01*
X26926Y4568D01*
X26980Y4594D01*
X27032Y4623D01*
X27082Y4655D01*
X27129Y4691D01*
X27175Y4730D01*
X27218Y4771D01*
X27258Y4815D01*
X27295Y4862D01*
X27329Y4911D01*
X27360Y4962D01*
X27388Y5015D01*
X27412Y5070D01*
X27433Y5126D01*
X27450Y5183D01*
X27463Y5241D01*
X27472Y5300D01*
X27478Y5359D01*
X27480Y5419D01*
X27481Y5263D02*
X27481Y8213D01*
X27481Y5263D02*
X27483Y5208D01*
X27489Y5153D01*
X27499Y5098D01*
X27512Y5044D01*
X27530Y4992D01*
X27551Y4941D01*
X27576Y4891D01*
X27604Y4843D01*
X27636Y4798D01*
X27671Y4755D01*
X27708Y4714D01*
X27749Y4677D01*
X27792Y4642D01*
X27837Y4610D01*
X27885Y4582D01*
X27935Y4557D01*
X27986Y4536D01*
X28038Y4518D01*
X28092Y4505D01*
X28147Y4495D01*
X28202Y4489D01*
X28257Y4487D01*
X28312Y4489D01*
X28367Y4495D01*
X28422Y4505D01*
X28476Y4518D01*
X28528Y4536D01*
X28579Y4557D01*
X28629Y4582D01*
X28677Y4610D01*
X28722Y4642D01*
X28765Y4677D01*
X28806Y4714D01*
X28843Y4755D01*
X28878Y4798D01*
X28910Y4843D01*
X28938Y4891D01*
X28963Y4941D01*
X28984Y4992D01*
X29002Y5044D01*
X29015Y5098D01*
X29025Y5153D01*
X29031Y5208D01*
X29033Y5263D01*
X29033Y7592D01*
X29031Y7691D01*
X29025Y7789D01*
X29015Y7888D01*
X29002Y7985D01*
X28984Y8083D01*
X28963Y8179D01*
X28937Y8275D01*
X28908Y8369D01*
X28876Y8462D01*
X28839Y8554D01*
X28799Y8644D01*
X28755Y8733D01*
X28708Y8820D01*
X28658Y8905D01*
X28604Y8987D01*
X28547Y9068D01*
X28487Y9146D01*
X28423Y9222D01*
X28357Y9295D01*
X28288Y9366D01*
X28216Y9434D01*
X28141Y9498D01*
X28064Y9560D01*
X27985Y9619D01*
X27903Y9674D01*
X27819Y9727D01*
X27734Y9775D01*
X27646Y9821D01*
X27556Y9863D01*
X27465Y9901D01*
X27373Y9935D01*
X27279Y9966D01*
X27184Y9993D01*
X27088Y10017D01*
X26991Y10036D01*
X26894Y10052D01*
X26796Y10064D01*
X26697Y10072D01*
X26598Y10076D01*
X26500Y10076D01*
X26401Y10072D01*
X26302Y10064D01*
X26204Y10052D01*
X26107Y10036D01*
X26010Y10017D01*
X25914Y9993D01*
X25819Y9966D01*
X25725Y9935D01*
X25633Y9901D01*
X25542Y9863D01*
X25452Y9821D01*
X25364Y9775D01*
X25279Y9727D01*
X25195Y9674D01*
X25113Y9619D01*
X25034Y9560D01*
X24957Y9498D01*
X24882Y9434D01*
X24810Y9366D01*
X24741Y9295D01*
X24675Y9222D01*
X24611Y9146D01*
X24551Y9068D01*
X24494Y8987D01*
X24440Y8905D01*
X24390Y8820D01*
X24343Y8733D01*
X24299Y8644D01*
X24259Y8554D01*
X24222Y8462D01*
X24190Y8369D01*
X24161Y8275D01*
X24135Y8179D01*
X24114Y8083D01*
X24096Y7985D01*
X24083Y7888D01*
X24073Y7789D01*
X24067Y7691D01*
X24065Y7592D01*
X24066Y7592D02*
X24066Y4953D01*
X24068Y4858D01*
X24074Y4764D01*
X24083Y4669D01*
X24097Y4576D01*
X24114Y4483D01*
X24135Y4390D01*
X24160Y4299D01*
X24188Y4208D01*
X24220Y4119D01*
X24256Y4031D01*
X24295Y3945D01*
X24337Y3861D01*
X24383Y3778D01*
X24433Y3697D01*
X24485Y3618D01*
X24541Y3542D01*
X24600Y3467D01*
X24662Y3395D01*
X24726Y3326D01*
X24794Y3260D01*
X24864Y3196D01*
X24936Y3135D01*
X25011Y3077D01*
X25089Y3022D01*
X25168Y2971D01*
X25250Y2922D01*
X25333Y2877D01*
X25418Y2836D01*
X25505Y2798D01*
X25593Y2763D01*
X25682Y2732D01*
X25773Y2705D01*
X25865Y2681D01*
X25958Y2661D01*
X26051Y2645D01*
X26145Y2633D01*
X26239Y2625D01*
X32174Y5729D02*
X33726Y5108D01*
X32174Y5729D02*
X32123Y5751D01*
X32074Y5777D01*
X32026Y5806D01*
X31981Y5839D01*
X31938Y5875D01*
X31897Y5913D01*
X31860Y5955D01*
X31825Y5998D01*
X31793Y6044D01*
X31765Y6093D01*
X31740Y6143D01*
X31719Y6194D01*
X31701Y6247D01*
X31687Y6301D01*
X31677Y6356D01*
X31671Y6412D01*
X31668Y6467D01*
X31669Y6523D01*
X31675Y6579D01*
X31684Y6634D01*
X31696Y6688D01*
X31713Y6742D01*
X31733Y6794D01*
X31757Y6844D01*
X31784Y6893D01*
X31815Y6940D01*
X31849Y6984D01*
X31885Y7026D01*
X31925Y7066D01*
X31967Y7102D01*
X32012Y7136D01*
X32059Y7166D01*
X32107Y7193D01*
X32158Y7217D01*
X32210Y7237D01*
X32264Y7253D01*
X32318Y7266D01*
X32373Y7275D01*
X32429Y7280D01*
X32485Y7281D01*
X32484Y7282D02*
X32595Y7278D01*
X32706Y7272D01*
X32816Y7261D01*
X32926Y7247D01*
X33036Y7230D01*
X33145Y7210D01*
X33253Y7186D01*
X33360Y7158D01*
X33467Y7127D01*
X33572Y7093D01*
X33677Y7056D01*
X33780Y7015D01*
X33882Y6971D01*
X33726Y5108D02*
X33777Y5086D01*
X33826Y5060D01*
X33874Y5031D01*
X33919Y4998D01*
X33962Y4962D01*
X34003Y4924D01*
X34040Y4882D01*
X34075Y4839D01*
X34107Y4793D01*
X34135Y4744D01*
X34160Y4694D01*
X34181Y4643D01*
X34199Y4590D01*
X34213Y4536D01*
X34223Y4481D01*
X34229Y4425D01*
X34232Y4370D01*
X34231Y4314D01*
X34225Y4258D01*
X34216Y4203D01*
X34204Y4149D01*
X34187Y4095D01*
X34167Y4043D01*
X34143Y3993D01*
X34116Y3944D01*
X34085Y3897D01*
X34051Y3853D01*
X34015Y3811D01*
X33975Y3771D01*
X33933Y3735D01*
X33888Y3701D01*
X33841Y3671D01*
X33793Y3644D01*
X33742Y3620D01*
X33690Y3600D01*
X33636Y3584D01*
X33582Y3571D01*
X33527Y3562D01*
X33471Y3557D01*
X33415Y3556D01*
X33416Y3556D02*
X33282Y3559D01*
X33148Y3566D01*
X33014Y3577D01*
X32881Y3590D01*
X32748Y3608D01*
X32615Y3628D01*
X32483Y3652D01*
X32352Y3680D01*
X32221Y3710D01*
X32092Y3744D01*
X31963Y3782D01*
X31835Y3822D01*
X31708Y3866D01*
X37395Y3556D02*
X38947Y3556D01*
X37395Y3556D02*
X37337Y3558D01*
X37278Y3563D01*
X37221Y3572D01*
X37163Y3585D01*
X37107Y3602D01*
X37052Y3621D01*
X36999Y3645D01*
X36946Y3671D01*
X36896Y3701D01*
X36848Y3734D01*
X36802Y3770D01*
X36758Y3808D01*
X36716Y3850D01*
X36678Y3894D01*
X36642Y3940D01*
X36609Y3988D01*
X36579Y4038D01*
X36553Y4091D01*
X36529Y4144D01*
X36510Y4199D01*
X36493Y4255D01*
X36480Y4313D01*
X36471Y4370D01*
X36466Y4429D01*
X36464Y4487D01*
X36463Y4487D02*
X36463Y6040D01*
X36465Y6110D01*
X36471Y6179D01*
X36481Y6248D01*
X36494Y6316D01*
X36512Y6384D01*
X36533Y6450D01*
X36558Y6515D01*
X36586Y6579D01*
X36618Y6641D01*
X36653Y6701D01*
X36692Y6759D01*
X36734Y6814D01*
X36779Y6868D01*
X36827Y6918D01*
X36877Y6966D01*
X36931Y7011D01*
X36986Y7053D01*
X37044Y7092D01*
X37104Y7127D01*
X37166Y7159D01*
X37230Y7187D01*
X37295Y7212D01*
X37361Y7233D01*
X37429Y7251D01*
X37497Y7264D01*
X37566Y7274D01*
X37635Y7280D01*
X37705Y7282D01*
X37775Y7280D01*
X37844Y7274D01*
X37913Y7264D01*
X37981Y7251D01*
X38049Y7233D01*
X38115Y7212D01*
X38180Y7187D01*
X38244Y7159D01*
X38306Y7127D01*
X38366Y7092D01*
X38424Y7053D01*
X38479Y7011D01*
X38533Y6966D01*
X38583Y6918D01*
X38631Y6868D01*
X38676Y6814D01*
X38718Y6759D01*
X38757Y6701D01*
X38792Y6641D01*
X38824Y6579D01*
X38852Y6515D01*
X38877Y6450D01*
X38898Y6384D01*
X38916Y6316D01*
X38929Y6248D01*
X38939Y6179D01*
X38945Y6110D01*
X38947Y6040D01*
X38947Y5419D01*
X36463Y5419D01*
X42156Y3556D02*
X43398Y3556D01*
X42156Y3556D02*
X42098Y3558D01*
X42039Y3563D01*
X41982Y3572D01*
X41924Y3585D01*
X41868Y3602D01*
X41813Y3621D01*
X41760Y3645D01*
X41707Y3671D01*
X41657Y3701D01*
X41609Y3734D01*
X41563Y3770D01*
X41519Y3808D01*
X41477Y3850D01*
X41439Y3894D01*
X41403Y3940D01*
X41370Y3988D01*
X41340Y4038D01*
X41314Y4091D01*
X41290Y4144D01*
X41271Y4199D01*
X41254Y4255D01*
X41241Y4313D01*
X41232Y4370D01*
X41227Y4429D01*
X41225Y4487D01*
X41225Y6350D01*
X41227Y6408D01*
X41232Y6467D01*
X41241Y6524D01*
X41254Y6582D01*
X41271Y6638D01*
X41290Y6693D01*
X41314Y6746D01*
X41340Y6799D01*
X41370Y6849D01*
X41403Y6897D01*
X41439Y6943D01*
X41477Y6987D01*
X41519Y7029D01*
X41563Y7067D01*
X41609Y7103D01*
X41657Y7136D01*
X41707Y7166D01*
X41760Y7192D01*
X41813Y7216D01*
X41868Y7235D01*
X41924Y7252D01*
X41982Y7265D01*
X42039Y7274D01*
X42098Y7279D01*
X42156Y7281D01*
X43398Y7281D01*
X45607Y7281D02*
X45607Y4487D01*
X45608Y4487D02*
X45610Y4429D01*
X45615Y4370D01*
X45624Y4313D01*
X45637Y4255D01*
X45654Y4199D01*
X45673Y4144D01*
X45697Y4091D01*
X45723Y4038D01*
X45753Y3988D01*
X45786Y3940D01*
X45822Y3894D01*
X45860Y3850D01*
X45902Y3808D01*
X45946Y3770D01*
X45992Y3734D01*
X46040Y3701D01*
X46090Y3671D01*
X46143Y3645D01*
X46196Y3621D01*
X46251Y3602D01*
X46307Y3585D01*
X46365Y3572D01*
X46422Y3563D01*
X46481Y3558D01*
X46539Y3556D01*
X48091Y3556D01*
X48091Y7281D01*
X50760Y7281D02*
X50760Y3556D01*
X50760Y7281D02*
X52623Y7281D01*
X52623Y6660D01*
X55317Y3556D02*
X56869Y3556D01*
X55317Y3556D02*
X55259Y3558D01*
X55200Y3563D01*
X55143Y3572D01*
X55085Y3585D01*
X55029Y3602D01*
X54974Y3621D01*
X54921Y3645D01*
X54868Y3671D01*
X54818Y3701D01*
X54770Y3734D01*
X54724Y3770D01*
X54680Y3808D01*
X54638Y3850D01*
X54600Y3894D01*
X54564Y3940D01*
X54531Y3988D01*
X54501Y4038D01*
X54475Y4091D01*
X54451Y4144D01*
X54432Y4199D01*
X54415Y4255D01*
X54402Y4313D01*
X54393Y4370D01*
X54388Y4429D01*
X54386Y4487D01*
X54385Y4487D02*
X54385Y6040D01*
X54387Y6110D01*
X54393Y6179D01*
X54403Y6248D01*
X54416Y6316D01*
X54434Y6384D01*
X54455Y6450D01*
X54480Y6515D01*
X54508Y6579D01*
X54540Y6641D01*
X54575Y6701D01*
X54614Y6759D01*
X54656Y6814D01*
X54701Y6868D01*
X54749Y6918D01*
X54799Y6966D01*
X54853Y7011D01*
X54908Y7053D01*
X54966Y7092D01*
X55026Y7127D01*
X55088Y7159D01*
X55152Y7187D01*
X55217Y7212D01*
X55283Y7233D01*
X55351Y7251D01*
X55419Y7264D01*
X55488Y7274D01*
X55557Y7280D01*
X55627Y7282D01*
X55697Y7280D01*
X55766Y7274D01*
X55835Y7264D01*
X55903Y7251D01*
X55971Y7233D01*
X56037Y7212D01*
X56102Y7187D01*
X56166Y7159D01*
X56228Y7127D01*
X56288Y7092D01*
X56346Y7053D01*
X56401Y7011D01*
X56455Y6966D01*
X56505Y6918D01*
X56553Y6868D01*
X56598Y6814D01*
X56640Y6759D01*
X56679Y6701D01*
X56714Y6641D01*
X56746Y6579D01*
X56774Y6515D01*
X56799Y6450D01*
X56820Y6384D01*
X56838Y6316D01*
X56851Y6248D01*
X56861Y6179D01*
X56867Y6110D01*
X56869Y6040D01*
X56869Y5419D01*
X54385Y5419D01*
X59210Y4487D02*
X59210Y9144D01*
X59210Y4487D02*
X59212Y4429D01*
X59217Y4370D01*
X59226Y4313D01*
X59239Y4255D01*
X59256Y4199D01*
X59275Y4144D01*
X59299Y4091D01*
X59325Y4038D01*
X59355Y3988D01*
X59388Y3940D01*
X59424Y3894D01*
X59462Y3850D01*
X59504Y3808D01*
X59548Y3770D01*
X59594Y3734D01*
X59642Y3701D01*
X59692Y3671D01*
X59745Y3645D01*
X59798Y3621D01*
X59853Y3602D01*
X59909Y3585D01*
X59967Y3572D01*
X60024Y3563D01*
X60083Y3558D01*
X60141Y3556D01*
X61883Y1693D02*
X62504Y1693D01*
X64367Y7281D01*
X61883Y7281D02*
X63125Y3556D01*
X66755Y3556D02*
X66755Y8213D01*
X66757Y8271D01*
X66762Y8330D01*
X66771Y8387D01*
X66784Y8445D01*
X66801Y8501D01*
X66820Y8556D01*
X66844Y8609D01*
X66870Y8662D01*
X66900Y8712D01*
X66933Y8760D01*
X66969Y8806D01*
X67007Y8850D01*
X67049Y8892D01*
X67093Y8930D01*
X67139Y8966D01*
X67187Y8999D01*
X67238Y9029D01*
X67290Y9055D01*
X67343Y9079D01*
X67398Y9098D01*
X67454Y9115D01*
X67512Y9128D01*
X67569Y9137D01*
X67628Y9142D01*
X67686Y9144D01*
X67997Y9144D01*
X67997Y7281D02*
X66134Y7281D01*
X69526Y7281D02*
X69526Y3556D01*
X69371Y8834D02*
X69371Y9144D01*
X69681Y9144D01*
X69681Y8834D01*
X69371Y8834D01*
X71292Y7281D02*
X73155Y7281D01*
X71913Y9144D02*
X71913Y4487D01*
X71914Y4487D02*
X71916Y4429D01*
X71921Y4370D01*
X71930Y4313D01*
X71943Y4255D01*
X71960Y4199D01*
X71979Y4144D01*
X72003Y4091D01*
X72029Y4038D01*
X72059Y3988D01*
X72092Y3940D01*
X72128Y3894D01*
X72166Y3850D01*
X72208Y3808D01*
X72252Y3770D01*
X72298Y3734D01*
X72346Y3701D01*
X72397Y3671D01*
X72449Y3645D01*
X72502Y3621D01*
X72557Y3602D01*
X72613Y3585D01*
X72671Y3572D01*
X72728Y3563D01*
X72787Y3558D01*
X72845Y3556D01*
X73155Y3556D01*
X75051Y7281D02*
X77534Y7281D01*
X75051Y3556D01*
X77534Y3556D01*
D11*
X17949Y52804D02*
X7112Y52804D01*
X12531Y58222D02*
X12531Y47385D01*
X83312Y52804D02*
X94149Y52804D01*
D12*
X62611Y68961D02*
X62611Y78359D01*
X65222Y78359D01*
X65322Y78357D01*
X65422Y78351D01*
X65521Y78342D01*
X65621Y78328D01*
X65719Y78311D01*
X65817Y78290D01*
X65914Y78266D01*
X66010Y78237D01*
X66105Y78205D01*
X66198Y78170D01*
X66290Y78131D01*
X66381Y78088D01*
X66469Y78042D01*
X66556Y77992D01*
X66641Y77940D01*
X66724Y77884D01*
X66805Y77825D01*
X66883Y77762D01*
X66959Y77697D01*
X67033Y77629D01*
X67103Y77559D01*
X67171Y77485D01*
X67236Y77409D01*
X67299Y77331D01*
X67358Y77250D01*
X67414Y77167D01*
X67466Y77082D01*
X67516Y76995D01*
X67562Y76907D01*
X67605Y76816D01*
X67644Y76724D01*
X67679Y76631D01*
X67711Y76536D01*
X67740Y76440D01*
X67764Y76343D01*
X67785Y76245D01*
X67802Y76147D01*
X67816Y76047D01*
X67825Y75948D01*
X67831Y75848D01*
X67833Y75748D01*
X67832Y75748D02*
X67832Y71572D01*
X67833Y71572D02*
X67831Y71472D01*
X67825Y71372D01*
X67816Y71273D01*
X67802Y71173D01*
X67785Y71075D01*
X67764Y70977D01*
X67740Y70880D01*
X67711Y70784D01*
X67679Y70689D01*
X67644Y70596D01*
X67605Y70504D01*
X67562Y70413D01*
X67516Y70325D01*
X67466Y70238D01*
X67414Y70153D01*
X67358Y70070D01*
X67299Y69989D01*
X67236Y69911D01*
X67171Y69835D01*
X67103Y69761D01*
X67033Y69691D01*
X66959Y69623D01*
X66883Y69558D01*
X66805Y69495D01*
X66724Y69436D01*
X66641Y69380D01*
X66556Y69328D01*
X66469Y69278D01*
X66381Y69232D01*
X66290Y69189D01*
X66198Y69150D01*
X66105Y69115D01*
X66010Y69083D01*
X65914Y69054D01*
X65817Y69030D01*
X65719Y69009D01*
X65621Y68992D01*
X65521Y68978D01*
X65422Y68969D01*
X65322Y68963D01*
X65222Y68961D01*
X62611Y68961D01*
D13*
X38100Y52578D03*
X38100Y23622D03*
X63500Y52578D03*
X63500Y23622D03*
D14*
X88300Y76200D03*
X50800Y76200D03*
X13300Y76200D03*
M02*
