G04 EAGLE Gerber X2 export*
G75*
%MOMM*%
%FSLAX34Y34*%
%LPD*%
%AMOC8*
5,1,8,0,0,1.08239X$1,22.5*%
G01*
%ADD10C,1.879600*%
%ADD11R,1.500000X2.500000*%

G36*
X88926Y1275D02*
X88926Y1275D01*
X88975Y1274D01*
X91056Y1479D01*
X91083Y1487D01*
X91111Y1487D01*
X91273Y1534D01*
X95118Y3127D01*
X95174Y3161D01*
X95234Y3187D01*
X95299Y3239D01*
X95327Y3256D01*
X95340Y3271D01*
X95365Y3292D01*
X98308Y6235D01*
X98347Y6288D01*
X98393Y6335D01*
X98433Y6408D01*
X98452Y6435D01*
X98458Y6453D01*
X98473Y6482D01*
X100066Y10327D01*
X100073Y10355D01*
X100086Y10380D01*
X100121Y10544D01*
X100326Y12625D01*
X100324Y12652D01*
X100329Y12700D01*
X100329Y76200D01*
X100325Y76226D01*
X100326Y76275D01*
X100121Y78356D01*
X100113Y78383D01*
X100113Y78411D01*
X100066Y78572D01*
X99805Y79203D01*
X99754Y79286D01*
X99708Y79372D01*
X99689Y79390D01*
X99676Y79412D01*
X99601Y79474D01*
X99530Y79541D01*
X99506Y79552D01*
X99486Y79569D01*
X99395Y79604D01*
X99307Y79645D01*
X99281Y79648D01*
X99257Y79657D01*
X99159Y79661D01*
X99063Y79672D01*
X99037Y79666D01*
X99011Y79667D01*
X98917Y79640D01*
X98822Y79620D01*
X98800Y79606D01*
X98775Y79599D01*
X98695Y79543D01*
X98611Y79493D01*
X98594Y79473D01*
X98573Y79459D01*
X98515Y79381D01*
X98451Y79306D01*
X98441Y79282D01*
X98426Y79261D01*
X98396Y79169D01*
X98359Y79078D01*
X98356Y79046D01*
X98350Y79027D01*
X98350Y78994D01*
X98341Y78912D01*
X98341Y77723D01*
X89062Y77723D01*
X89042Y77720D01*
X89023Y77722D01*
X88921Y77700D01*
X88819Y77683D01*
X88802Y77674D01*
X88782Y77670D01*
X88693Y77617D01*
X88602Y77568D01*
X88588Y77554D01*
X88571Y77544D01*
X88504Y77465D01*
X88433Y77390D01*
X88424Y77372D01*
X88411Y77357D01*
X88372Y77261D01*
X88329Y77167D01*
X88327Y77147D01*
X88319Y77129D01*
X88301Y76962D01*
X88301Y76199D01*
X87538Y76199D01*
X87518Y76196D01*
X87499Y76198D01*
X87397Y76176D01*
X87295Y76159D01*
X87278Y76150D01*
X87258Y76146D01*
X87169Y76093D01*
X87078Y76044D01*
X87064Y76030D01*
X87047Y76020D01*
X86980Y75941D01*
X86909Y75866D01*
X86900Y75848D01*
X86887Y75833D01*
X86848Y75737D01*
X86805Y75643D01*
X86803Y75623D01*
X86795Y75605D01*
X86777Y75438D01*
X86777Y61159D01*
X80723Y61159D01*
X80693Y61155D01*
X80664Y61157D01*
X80573Y61135D01*
X80480Y61120D01*
X80454Y61106D01*
X80425Y61099D01*
X80346Y61048D01*
X80262Y61004D01*
X80242Y60983D01*
X80217Y60967D01*
X80158Y60894D01*
X80093Y60826D01*
X80081Y60799D01*
X80062Y60776D01*
X80029Y60688D01*
X79989Y60603D01*
X79986Y60574D01*
X79976Y60546D01*
X79962Y60379D01*
X80500Y38861D01*
X2032Y38861D01*
X2012Y38858D01*
X1993Y38860D01*
X1891Y38838D01*
X1789Y38822D01*
X1772Y38812D01*
X1752Y38808D01*
X1663Y38755D01*
X1572Y38706D01*
X1558Y38692D01*
X1541Y38682D01*
X1474Y38603D01*
X1402Y38528D01*
X1394Y38510D01*
X1381Y38495D01*
X1342Y38399D01*
X1299Y38305D01*
X1297Y38285D01*
X1289Y38267D01*
X1271Y38100D01*
X1271Y12700D01*
X1275Y12674D01*
X1275Y12669D01*
X1273Y12650D01*
X1275Y12642D01*
X1274Y12625D01*
X1479Y10544D01*
X1487Y10517D01*
X1487Y10489D01*
X1534Y10327D01*
X3127Y6482D01*
X3161Y6426D01*
X3187Y6366D01*
X3239Y6301D01*
X3256Y6273D01*
X3271Y6260D01*
X3292Y6235D01*
X6235Y3292D01*
X6288Y3253D01*
X6335Y3207D01*
X6408Y3167D01*
X6435Y3148D01*
X6453Y3142D01*
X6482Y3127D01*
X10327Y1534D01*
X10355Y1527D01*
X10380Y1514D01*
X10544Y1479D01*
X12625Y1274D01*
X12652Y1276D01*
X12700Y1271D01*
X88900Y1271D01*
X88926Y1275D01*
G37*
G36*
X29608Y42430D02*
X29608Y42430D01*
X29680Y42432D01*
X29729Y42450D01*
X29780Y42459D01*
X29844Y42492D01*
X29911Y42517D01*
X29952Y42549D01*
X29998Y42574D01*
X30047Y42626D01*
X30103Y42670D01*
X30131Y42714D01*
X30167Y42752D01*
X30197Y42817D01*
X30236Y42877D01*
X30249Y42928D01*
X30271Y42975D01*
X30279Y43046D01*
X30296Y43116D01*
X30292Y43168D01*
X30298Y43219D01*
X30282Y43290D01*
X30277Y43361D01*
X30257Y43409D01*
X30245Y43460D01*
X30209Y43521D01*
X30181Y43587D01*
X30136Y43643D01*
X30119Y43671D01*
X30102Y43686D01*
X30076Y43718D01*
X28994Y44800D01*
X27889Y46321D01*
X27036Y47995D01*
X26455Y49782D01*
X26254Y51055D01*
X37338Y51055D01*
X37358Y51058D01*
X37377Y51056D01*
X37479Y51078D01*
X37581Y51095D01*
X37598Y51104D01*
X37618Y51108D01*
X37707Y51161D01*
X37798Y51210D01*
X37812Y51224D01*
X37829Y51234D01*
X37896Y51313D01*
X37967Y51388D01*
X37976Y51406D01*
X37989Y51421D01*
X38027Y51517D01*
X38071Y51611D01*
X38073Y51631D01*
X38081Y51649D01*
X38099Y51816D01*
X38099Y52579D01*
X38862Y52579D01*
X38882Y52582D01*
X38901Y52580D01*
X39003Y52602D01*
X39105Y52619D01*
X39122Y52628D01*
X39142Y52632D01*
X39231Y52685D01*
X39322Y52734D01*
X39336Y52748D01*
X39353Y52758D01*
X39420Y52837D01*
X39491Y52912D01*
X39500Y52930D01*
X39513Y52945D01*
X39552Y53041D01*
X39595Y53135D01*
X39597Y53155D01*
X39605Y53173D01*
X39623Y53340D01*
X39623Y64424D01*
X40895Y64223D01*
X40974Y64223D01*
X41053Y64215D01*
X41097Y64224D01*
X41141Y64224D01*
X41216Y64250D01*
X41294Y64267D01*
X41332Y64289D01*
X41374Y64304D01*
X41437Y64352D01*
X41505Y64393D01*
X41534Y64427D01*
X41569Y64453D01*
X41613Y64519D01*
X41665Y64580D01*
X41681Y64621D01*
X41706Y64658D01*
X41727Y64734D01*
X41757Y64808D01*
X41763Y64866D01*
X41771Y64895D01*
X41769Y64922D01*
X41775Y64975D01*
X41775Y86868D01*
X41772Y86888D01*
X41774Y86907D01*
X41752Y87009D01*
X41736Y87111D01*
X41726Y87128D01*
X41722Y87148D01*
X41669Y87237D01*
X41620Y87328D01*
X41606Y87342D01*
X41596Y87359D01*
X41517Y87426D01*
X41442Y87498D01*
X41424Y87506D01*
X41409Y87519D01*
X41313Y87558D01*
X41219Y87601D01*
X41199Y87603D01*
X41181Y87611D01*
X41014Y87629D01*
X24102Y87629D01*
X24082Y87626D01*
X24063Y87628D01*
X23961Y87606D01*
X23859Y87590D01*
X23842Y87580D01*
X23822Y87576D01*
X23733Y87523D01*
X23642Y87474D01*
X23628Y87460D01*
X23611Y87450D01*
X23544Y87371D01*
X23472Y87296D01*
X23464Y87278D01*
X23451Y87263D01*
X23412Y87167D01*
X23369Y87073D01*
X23367Y87053D01*
X23359Y87035D01*
X23341Y86868D01*
X23341Y77723D01*
X14062Y77723D01*
X14042Y77720D01*
X14023Y77722D01*
X13921Y77700D01*
X13819Y77683D01*
X13802Y77674D01*
X13782Y77670D01*
X13693Y77617D01*
X13602Y77568D01*
X13588Y77554D01*
X13571Y77544D01*
X13504Y77465D01*
X13433Y77390D01*
X13424Y77372D01*
X13411Y77357D01*
X13372Y77261D01*
X13329Y77167D01*
X13327Y77147D01*
X13319Y77129D01*
X13301Y76962D01*
X13301Y76199D01*
X13299Y76199D01*
X13299Y76962D01*
X13296Y76982D01*
X13298Y77001D01*
X13276Y77103D01*
X13259Y77205D01*
X13250Y77222D01*
X13246Y77242D01*
X13193Y77331D01*
X13144Y77422D01*
X13130Y77436D01*
X13120Y77453D01*
X13041Y77520D01*
X12966Y77591D01*
X12948Y77600D01*
X12933Y77613D01*
X12837Y77652D01*
X12743Y77695D01*
X12723Y77697D01*
X12705Y77705D01*
X12538Y77723D01*
X3259Y77723D01*
X3259Y78912D01*
X3244Y79007D01*
X3234Y79105D01*
X3224Y79129D01*
X3220Y79154D01*
X3174Y79240D01*
X3134Y79329D01*
X3117Y79349D01*
X3104Y79372D01*
X3034Y79439D01*
X2968Y79510D01*
X2945Y79523D01*
X2926Y79541D01*
X2838Y79582D01*
X2752Y79629D01*
X2727Y79634D01*
X2703Y79645D01*
X2606Y79655D01*
X2510Y79673D01*
X2484Y79669D01*
X2459Y79672D01*
X2364Y79651D01*
X2267Y79637D01*
X2244Y79625D01*
X2218Y79620D01*
X2135Y79570D01*
X2048Y79525D01*
X2029Y79507D01*
X2007Y79493D01*
X1944Y79419D01*
X1876Y79350D01*
X1860Y79321D01*
X1847Y79306D01*
X1835Y79276D01*
X1795Y79203D01*
X1534Y78572D01*
X1527Y78545D01*
X1514Y78520D01*
X1479Y78356D01*
X1274Y76275D01*
X1276Y76248D01*
X1271Y76200D01*
X1271Y43180D01*
X1274Y43160D01*
X1272Y43141D01*
X1294Y43039D01*
X1310Y42937D01*
X1320Y42920D01*
X1324Y42900D01*
X1377Y42811D01*
X1426Y42720D01*
X1440Y42706D01*
X1450Y42689D01*
X1529Y42622D01*
X1604Y42551D01*
X1622Y42542D01*
X1637Y42529D01*
X1733Y42490D01*
X1827Y42447D01*
X1847Y42445D01*
X1865Y42437D01*
X2032Y42419D01*
X29538Y42419D01*
X29608Y42430D01*
G37*
G36*
X76220Y43692D02*
X76220Y43692D01*
X76239Y43690D01*
X76341Y43712D01*
X76443Y43729D01*
X76460Y43738D01*
X76480Y43742D01*
X76569Y43795D01*
X76660Y43844D01*
X76674Y43858D01*
X76691Y43868D01*
X76758Y43947D01*
X76830Y44022D01*
X76838Y44040D01*
X76851Y44055D01*
X76890Y44151D01*
X76933Y44245D01*
X76935Y44265D01*
X76943Y44283D01*
X76961Y44450D01*
X76961Y86868D01*
X76958Y86888D01*
X76960Y86907D01*
X76938Y87009D01*
X76921Y87111D01*
X76912Y87128D01*
X76908Y87148D01*
X76855Y87237D01*
X76806Y87328D01*
X76792Y87342D01*
X76782Y87359D01*
X76703Y87426D01*
X76628Y87498D01*
X76610Y87506D01*
X76595Y87519D01*
X76499Y87558D01*
X76405Y87601D01*
X76385Y87603D01*
X76367Y87611D01*
X76200Y87629D01*
X61602Y87629D01*
X61582Y87626D01*
X61563Y87628D01*
X61461Y87606D01*
X61359Y87590D01*
X61342Y87580D01*
X61322Y87576D01*
X61233Y87523D01*
X61142Y87474D01*
X61128Y87460D01*
X61111Y87450D01*
X61044Y87371D01*
X60972Y87296D01*
X60964Y87278D01*
X60951Y87263D01*
X60912Y87167D01*
X60869Y87073D01*
X60867Y87053D01*
X60859Y87035D01*
X60841Y86868D01*
X60841Y77723D01*
X53340Y77723D01*
X53320Y77720D01*
X53301Y77722D01*
X53199Y77700D01*
X53097Y77683D01*
X53080Y77674D01*
X53060Y77670D01*
X52971Y77617D01*
X52880Y77568D01*
X52866Y77554D01*
X52849Y77544D01*
X52782Y77465D01*
X52711Y77390D01*
X52702Y77372D01*
X52689Y77357D01*
X52650Y77261D01*
X52607Y77167D01*
X52605Y77147D01*
X52597Y77129D01*
X52579Y76962D01*
X52579Y75438D01*
X52582Y75418D01*
X52580Y75399D01*
X52602Y75297D01*
X52619Y75195D01*
X52628Y75178D01*
X52632Y75158D01*
X52685Y75069D01*
X52734Y74978D01*
X52748Y74964D01*
X52758Y74947D01*
X52837Y74880D01*
X52912Y74809D01*
X52930Y74800D01*
X52945Y74787D01*
X53041Y74748D01*
X53135Y74705D01*
X53155Y74703D01*
X53173Y74695D01*
X53340Y74677D01*
X60841Y74677D01*
X60841Y65136D01*
X60854Y65057D01*
X60857Y64978D01*
X60873Y64937D01*
X60880Y64893D01*
X60918Y64823D01*
X60947Y64749D01*
X60975Y64715D01*
X60996Y64676D01*
X61053Y64621D01*
X61104Y64560D01*
X61142Y64537D01*
X61174Y64506D01*
X61246Y64473D01*
X61314Y64431D01*
X61357Y64421D01*
X61397Y64403D01*
X61476Y64394D01*
X61554Y64376D01*
X61612Y64379D01*
X61641Y64375D01*
X61669Y64381D01*
X61721Y64384D01*
X61977Y64424D01*
X61977Y53340D01*
X61980Y53320D01*
X61978Y53301D01*
X62000Y53199D01*
X62017Y53097D01*
X62026Y53080D01*
X62030Y53060D01*
X62083Y52971D01*
X62132Y52880D01*
X62146Y52866D01*
X62156Y52849D01*
X62235Y52782D01*
X62310Y52711D01*
X62328Y52702D01*
X62343Y52689D01*
X62439Y52651D01*
X62533Y52607D01*
X62553Y52605D01*
X62571Y52597D01*
X62738Y52579D01*
X63501Y52579D01*
X63501Y51816D01*
X63504Y51796D01*
X63502Y51777D01*
X63524Y51675D01*
X63541Y51573D01*
X63550Y51556D01*
X63554Y51536D01*
X63607Y51447D01*
X63656Y51356D01*
X63670Y51342D01*
X63680Y51325D01*
X63759Y51258D01*
X63834Y51187D01*
X63852Y51178D01*
X63867Y51165D01*
X63963Y51126D01*
X64057Y51083D01*
X64077Y51081D01*
X64095Y51073D01*
X64262Y51055D01*
X75346Y51055D01*
X75145Y49782D01*
X74564Y47995D01*
X73711Y46321D01*
X72677Y44897D01*
X72671Y44887D01*
X72663Y44878D01*
X72616Y44777D01*
X72566Y44678D01*
X72565Y44666D01*
X72560Y44655D01*
X72547Y44544D01*
X72532Y44434D01*
X72534Y44422D01*
X72532Y44411D01*
X72556Y44302D01*
X72576Y44192D01*
X72582Y44182D01*
X72585Y44170D01*
X72642Y44074D01*
X72696Y43977D01*
X72705Y43969D01*
X72711Y43959D01*
X72796Y43887D01*
X72878Y43812D01*
X72889Y43807D01*
X72898Y43799D01*
X73001Y43757D01*
X73103Y43713D01*
X73115Y43712D01*
X73126Y43707D01*
X73293Y43689D01*
X76200Y43689D01*
X76220Y43692D01*
G37*
%LPC*%
G36*
X61327Y12699D02*
X61327Y12699D01*
X57313Y14362D01*
X54240Y17435D01*
X52577Y21449D01*
X52577Y25795D01*
X54240Y29809D01*
X57313Y32882D01*
X61327Y34545D01*
X65673Y34545D01*
X69687Y32882D01*
X72760Y29809D01*
X74423Y25795D01*
X74423Y21449D01*
X72760Y17435D01*
X69687Y14362D01*
X65673Y12699D01*
X61327Y12699D01*
G37*
%LPD*%
%LPC*%
G36*
X89823Y61159D02*
X89823Y61159D01*
X89823Y74677D01*
X98341Y74677D01*
X98341Y63366D01*
X98168Y62719D01*
X97833Y62140D01*
X97360Y61667D01*
X96781Y61332D01*
X96134Y61159D01*
X89823Y61159D01*
G37*
%LPD*%
%LPC*%
G36*
X14823Y61159D02*
X14823Y61159D01*
X14823Y74677D01*
X23341Y74677D01*
X23341Y63366D01*
X23168Y62719D01*
X22833Y62140D01*
X22360Y61667D01*
X21781Y61332D01*
X21134Y61159D01*
X14823Y61159D01*
G37*
%LPD*%
%LPC*%
G36*
X5466Y61159D02*
X5466Y61159D01*
X4819Y61332D01*
X4240Y61667D01*
X3767Y62140D01*
X3432Y62719D01*
X3259Y63366D01*
X3259Y74677D01*
X11777Y74677D01*
X11777Y61159D01*
X5466Y61159D01*
G37*
%LPD*%
%LPC*%
G36*
X65023Y54101D02*
X65023Y54101D01*
X65023Y64424D01*
X66296Y64223D01*
X68083Y63642D01*
X69757Y62789D01*
X71278Y61684D01*
X72606Y60356D01*
X73711Y58835D01*
X74564Y57161D01*
X75145Y55374D01*
X75346Y54101D01*
X65023Y54101D01*
G37*
%LPD*%
%LPC*%
G36*
X39623Y25145D02*
X39623Y25145D01*
X39623Y35468D01*
X40896Y35267D01*
X42683Y34686D01*
X44357Y33833D01*
X45878Y32728D01*
X47206Y31400D01*
X48311Y29879D01*
X49164Y28205D01*
X49745Y26418D01*
X49946Y25145D01*
X39623Y25145D01*
G37*
%LPD*%
%LPC*%
G36*
X39623Y22099D02*
X39623Y22099D01*
X49946Y22099D01*
X49745Y20826D01*
X49164Y19039D01*
X48311Y17365D01*
X47206Y15844D01*
X45878Y14516D01*
X44357Y13411D01*
X42683Y12558D01*
X40896Y11977D01*
X39623Y11776D01*
X39623Y22099D01*
G37*
%LPD*%
%LPC*%
G36*
X26254Y54101D02*
X26254Y54101D01*
X26455Y55374D01*
X27036Y57161D01*
X27889Y58835D01*
X28994Y60356D01*
X30322Y61684D01*
X31843Y62789D01*
X33517Y63642D01*
X35304Y64223D01*
X36577Y64424D01*
X36577Y54101D01*
X26254Y54101D01*
G37*
%LPD*%
%LPC*%
G36*
X26254Y25145D02*
X26254Y25145D01*
X26455Y26418D01*
X27036Y28205D01*
X27889Y29879D01*
X28994Y31400D01*
X30322Y32728D01*
X31843Y33833D01*
X33517Y34686D01*
X35304Y35267D01*
X36577Y35468D01*
X36577Y25145D01*
X26254Y25145D01*
G37*
%LPD*%
%LPC*%
G36*
X35304Y11977D02*
X35304Y11977D01*
X33517Y12558D01*
X31843Y13411D01*
X30322Y14516D01*
X28994Y15844D01*
X27889Y17365D01*
X27036Y19039D01*
X26455Y20826D01*
X26254Y22099D01*
X36577Y22099D01*
X36577Y11776D01*
X35304Y11977D01*
G37*
%LPD*%
%LPC*%
G36*
X38099Y23621D02*
X38099Y23621D01*
X38099Y23623D01*
X38101Y23623D01*
X38101Y23621D01*
X38099Y23621D01*
G37*
%LPD*%
D10*
X38100Y52578D03*
X38100Y23622D03*
X63500Y52578D03*
X63500Y23622D03*
D11*
X88300Y76200D03*
X50800Y76200D03*
X13300Y76200D03*
M02*
